<svg t="1640096234320" class="icon" viewBox="0 0 1024 1024" version="1.1" xmlns="http://www.w3.org/2000/svg" p-id="6561" width="200" height="200"><path d="M981.333333 533.333333a21.333333 21.333333 0 0 1-21.333333 21.333334H448a21.333333 21.333333 0 0 1 0-42.666667h512a21.333333 21.333333 0 0 1 21.333333 21.333333zM533.333333 170.666667h426.666667a21.333333 21.333333 0 0 0 0-42.666667H533.333333a21.333333 21.333333 0 0 0 0 42.666667z m426.666667 725.333333H64a21.333333 21.333333 0 0 0 0 42.666667h896a21.333333 21.333333 0 0 0 0-42.666667zM89.66 696.753333C117.333333 715.186667 153.646667 725.333333 192 725.333333s74.7-10.146667 102.34-28.58c14.253333-9.5 25.56-20.746667 33.613333-33.44C336.833333 649.333333 341.333333 634.3 341.333333 618.666667V182a140.893333 140.893333 0 0 0 30.966667 27.82A21.18 21.18 0 0 0 376.666667 212c8.713333 3.2 16.773333 8.606667 23.953333 16.086667 16.733333 17.42 23.806667 41.146667 26.533333 53.733333a21.333333 21.333333 0 0 0 41.706667-9.026667c-4.5-20.773333-14.666667-50.513333-37.466667-74.266666-11.04-11.493333-23.64-20.093333-37.493333-25.606667-10.306667-7.126667-19.44-16.58-27.153333-28.133333-19.64-29.393333-24.373333-64.04-25.446667-82.08A21.333333 21.333333 0 0 0 298.666667 64v479.586667c-1.413333-1.02-2.846667-2-4.326667-3.006667C266.7 522.146667 230.353333 512 192 512s-74.666667 10.146667-102.34 28.58C75.406667 550.08 64.1 561.333333 56.046667 574 47.166667 588 42.666667 603.033333 42.666667 618.666667s4.5 30.666667 13.38 44.666666c8.053333 12.666667 19.36 23.92 33.613333 33.42z" fill="#ffffff" p-id="6562"></path></svg>